<svg width="24" height="24" viewBox="0 0 16 16" fill="none" xmlns="http://www.w3.org/2000/svg">
<path d="M3.5 6.16666V12.8333C3.5 13.0543 3.4122 13.2663 3.25592 13.4226C3.09964 13.5788 2.88768 13.6667 2.66667 13.6667H0.999999C0.778982 13.6667 0.567024 13.5788 0.410741 13.4226C0.254466 13.2663 0.166666 13.0543 0.166666 12.8333V7C0.166666 6.779 0.254466 6.567 0.410741 6.41075C0.567024 6.2545 0.778982 6.16666 0.999999 6.16666H3.5ZM3.5 6.16666C4.38406 6.16666 5.56511 5.8155 6.19024 5.19035C6.81538 4.56523 7.16655 3.71739 7.16655 2.83333V1.99999C7.16655 1.55797 7.34213 1.13405 7.65471 0.821487C7.9673 0.50892 8.39121 0.333328 8.83321 0.333328C9.27521 0.333328 9.69913 0.50892 10.0117 0.821487C10.3243 1.13405 10.4999 1.55797 10.4999 1.99999V6.16666H12.9999C13.4419 6.16666 13.8658 6.34225 14.1784 6.65483C14.491 6.96741 14.6665 7.39133 14.6665 7.83333L13.8332 12C13.7134 12.5112 13.486 12.9502 13.1855 13.2508C12.8848 13.5514 12.5272 13.6973 12.1665 13.6667H6.33321C5.67017 13.6667 5.03429 13.4032 4.56545 12.9344C4.09661 12.4656 3.83321 11.8297 3.83321 11.1667" fill="white"/>
</svg>
